<svg xmlns="http://www.w3.org/2000/svg" width="334.667" height="334.667" version="1.0" viewBox="0 0 251 251"><path d="M119 42.2c-5.7.6-13.5 2.3-19.5 4.3-5.7 1.9-16.8 8.2-22.5 12.8-14.3 11.6-22.5 25.8-27.9 48-1.4 6.1-1.4 32.3.1 38.4 9.6 39.9 39.8 63.5 80.9 63.4 36-.1 62-17.8 71.9-49 2.2-7.1 2.6-16.1.8-17.9-.8-.8-6.4-1.2-18.8-1.2h-17.6l-1.8 7.1c-1.9 7.1-7.2 16.5-11.7 20.6-5.1 4.6-11.3 6.3-23.1 6.3-10.2 0-11.5-.2-17.4-3-10.5-5-18.2-14.6-21.7-26.7-1.6-5.9-2.1-29.9-.6-36.3 2-9.2 5.9-16 12.9-23 5.3-5.4 7.7-7 13.3-8.9 14-4.9 30.9-1.1 40.3 9.1 4 4.4 5.7 7.3 7 11.8 1.3 4.9 1.7 5 19.1 5 9 0 17.2-.4 18.2-1 2.6-1.3 3.3-3.7 2.2-7.4-.5-1.7-1.5-5.1-2.2-7.6-5.7-20.4-24.1-36.8-48.4-43-6.6-1.6-25.3-2.7-33.5-1.8z"/></svg>